<svg xmlns="http://www.w3.org/2000/svg" width="341" height="334" viewBox="0 0 341 334"><g transform="translate(-120 -1862)"><g transform="translate(120 1862)"><circle cx="4" cy="4" r="4" fill="#ff8c2b"/><circle cx="4" cy="4" r="4" transform="translate(0 18)" fill="#ff8c2b"/><circle cx="4" cy="4" r="4" transform="translate(0 36)" fill="#ff8c2b"/><circle cx="4" cy="4" r="4" transform="translate(0 54)" fill="#ff8c2b"/><circle cx="4" cy="4" r="4" transform="translate(0 72)" fill="#ff8c2b"/><circle cx="4" cy="4" r="4" transform="translate(0 90)" fill="#ff8c2b"/><circle cx="4" cy="4" r="4" transform="translate(0 108)" fill="#ff8c2b"/><circle cx="4" cy="4" r="4" transform="translate(0 126)" fill="#ff8c2b"/><circle cx="4" cy="4" r="4" transform="translate(0 144)" fill="#ff8c2b"/><circle cx="4" cy="4" r="4" transform="translate(0 162)" fill="#ff8c2b"/><circle cx="4" cy="4" r="4" transform="translate(0 180)" fill="#ff8c2b"/><circle cx="4" cy="4" r="4" transform="translate(0 198)" fill="#ff8c2b"/><circle cx="4" cy="4" r="4" transform="translate(0 216)" fill="#ff8c2b"/><circle cx="4" cy="4" r="4" transform="translate(20)" fill="#ff8c2b"/><circle cx="4" cy="4" r="4" transform="translate(20 18)" fill="#ff8c2b"/><circle cx="4" cy="4" r="4" transform="translate(20 36)" fill="#ff8c2b"/><circle cx="4" cy="4" r="4" transform="translate(20 54)" fill="#ff8c2b"/><circle cx="4" cy="4" r="4" transform="translate(20 72)" fill="#ff8c2b"/><circle cx="4" cy="4" r="4" transform="translate(20 90)" fill="#ff8c2b"/><circle cx="4" cy="4" r="4" transform="translate(20 108)" fill="#ff8c2b"/><circle cx="4" cy="4" r="4" transform="translate(20 126)" fill="#ff8c2b"/><circle cx="4" cy="4" r="4" transform="translate(20 144)" fill="#ff8c2b"/><circle cx="4" cy="4" r="4" transform="translate(20 162)" fill="#ff8c2b"/><circle cx="4" cy="4" r="4" transform="translate(20 180)" fill="#ff8c2b"/><circle cx="4" cy="4" r="4" transform="translate(20 198)" fill="#ff8c2b"/><circle cx="4" cy="4" r="4" transform="translate(20 216)" fill="#ff8c2b"/><circle cx="4" cy="4" r="4" transform="translate(40)" fill="#ff8c2b"/><circle cx="4" cy="4" r="4" transform="translate(40 18)" fill="#ff8c2b"/><circle cx="4" cy="4" r="4" transform="translate(40 36)" fill="#ff8c2b"/><circle cx="4" cy="4" r="4" transform="translate(40 54)" fill="#ff8c2b"/><circle cx="4" cy="4" r="4" transform="translate(40 72)" fill="#ff8c2b"/><circle cx="4" cy="4" r="4" transform="translate(40 90)" fill="#ff8c2b"/><circle cx="4" cy="4" r="4" transform="translate(40 108)" fill="#ff8c2b"/><circle cx="4" cy="4" r="4" transform="translate(40 126)" fill="#ff8c2b"/><circle cx="4" cy="4" r="4" transform="translate(40 144)" fill="#ff8c2b"/><circle cx="4" cy="4" r="4" transform="translate(40 162)" fill="#ff8c2b"/><circle cx="4" cy="4" r="4" transform="translate(40 180)" fill="#ff8c2b"/><circle cx="4" cy="4" r="4" transform="translate(40 198)" fill="#ff8c2b"/><circle cx="4" cy="4" r="4" transform="translate(40 216)" fill="#ff8c2b"/><circle cx="4" cy="4" r="4" transform="translate(60)" fill="#ff8c2b"/><circle cx="4" cy="4" r="4" transform="translate(60 18)" fill="#ff8c2b"/><circle cx="4" cy="4" r="4" transform="translate(60 36)" fill="#ff8c2b"/><circle cx="4" cy="4" r="4" transform="translate(60 54)" fill="#ff8c2b"/><circle cx="4" cy="4" r="4" transform="translate(60 72)" fill="#ff8c2b"/><circle cx="4" cy="4" r="4" transform="translate(60 90)" fill="#ff8c2b"/><circle cx="4" cy="4" r="4" transform="translate(60 108)" fill="#ff8c2b"/><circle cx="4" cy="4" r="4" transform="translate(60 126)" fill="#ff8c2b"/><circle cx="4" cy="4" r="4" transform="translate(60 144)" fill="#ff8c2b"/><circle cx="4" cy="4" r="4" transform="translate(60 162)" fill="#ff8c2b"/><circle cx="4" cy="4" r="4" transform="translate(60 180)" fill="#ff8c2b"/><circle cx="4" cy="4" r="4" transform="translate(60 198)" fill="#ff8c2b"/><circle cx="4" cy="4" r="4" transform="translate(60 216)" fill="#ff8c2b"/><circle cx="4" cy="4" r="4" transform="translate(80)" fill="#ff8c2b"/><circle cx="4" cy="4" r="4" transform="translate(80 18)" fill="#ff8c2b"/><circle cx="4" cy="4" r="4" transform="translate(80 36)" fill="#ff8c2b"/><circle cx="4" cy="4" r="4" transform="translate(80 54)" fill="#ff8c2b"/><circle cx="4" cy="4" r="4" transform="translate(80 72)" fill="#ff8c2b"/><circle cx="4" cy="4" r="4" transform="translate(80 90)" fill="#ff8c2b"/><circle cx="4" cy="4" r="4" transform="translate(80 108)" fill="#ff8c2b"/><circle cx="4" cy="4" r="4" transform="translate(80 126)" fill="#ff8c2b"/><circle cx="4" cy="4" r="4" transform="translate(80 144)" fill="#ff8c2b"/><circle cx="4" cy="4" r="4" transform="translate(80 162)" fill="#ff8c2b"/><circle cx="4" cy="4" r="4" transform="translate(80 180)" fill="#ff8c2b"/><circle cx="4" cy="4" r="4" transform="translate(80 198)" fill="#ff8c2b"/><circle cx="4" cy="4" r="4" transform="translate(80 216)" fill="#ff8c2b"/><circle cx="4" cy="4" r="4" transform="translate(100)" fill="#ff8c2b"/><circle cx="4" cy="4" r="4" transform="translate(100 18)" fill="#ff8c2b"/><circle cx="4" cy="4" r="4" transform="translate(100 36)" fill="#ff8c2b"/><circle cx="4" cy="4" r="4" transform="translate(100 54)" fill="#ff8c2b"/><circle cx="4" cy="4" r="4" transform="translate(100 72)" fill="#ff8c2b"/><circle cx="4" cy="4" r="4" transform="translate(100 90)" fill="#ff8c2b"/><circle cx="4" cy="4" r="4" transform="translate(100 108)" fill="#ff8c2b"/><circle cx="4" cy="4" r="4" transform="translate(100 126)" fill="#ff8c2b"/><circle cx="4" cy="4" r="4" transform="translate(100 144)" fill="#ff8c2b"/><circle cx="4" cy="4" r="4" transform="translate(100 162)" fill="#ff8c2b"/><circle cx="4" cy="4" r="4" transform="translate(100 180)" fill="#ff8c2b"/><circle cx="4" cy="4" r="4" transform="translate(100 198)" fill="#ff8c2b"/><circle cx="4" cy="4" r="4" transform="translate(100 216)" fill="#ff8c2b"/><circle cx="4" cy="4" r="4" transform="translate(120)" fill="#ff8c2b"/><circle cx="4" cy="4" r="4" transform="translate(120 18)" fill="#ff8c2b"/><circle cx="4" cy="4" r="4" transform="translate(120 36)" fill="#ff8c2b"/><circle cx="4" cy="4" r="4" transform="translate(120 54)" fill="#ff8c2b"/><circle cx="4" cy="4" r="4" transform="translate(120 72)" fill="#ff8c2b"/><circle cx="4" cy="4" r="4" transform="translate(120 90)" fill="#ff8c2b"/><circle cx="4" cy="4" r="4" transform="translate(120 108)" fill="#ff8c2b"/><circle cx="4" cy="4" r="4" transform="translate(120 126)" fill="#ff8c2b"/><circle cx="4" cy="4" r="4" transform="translate(120 144)" fill="#ff8c2b"/><circle cx="4" cy="4" r="4" transform="translate(120 162)" fill="#ff8c2b"/><circle cx="4" cy="4" r="4" transform="translate(120 180)" fill="#ff8c2b"/><circle cx="4" cy="4" r="4" transform="translate(120 198)" fill="#ff8c2b"/><circle cx="4" cy="4" r="4" transform="translate(120 216)" fill="#ff8c2b"/><circle cx="4" cy="4" r="4" transform="translate(140)" fill="#ff8c2b"/><circle cx="4" cy="4" r="4" transform="translate(140 18)" fill="#ff8c2b"/><circle cx="4" cy="4" r="4" transform="translate(140 36)" fill="#ff8c2b"/><circle cx="4" cy="4" r="4" transform="translate(140 54)" fill="#ff8c2b"/><circle cx="4" cy="4" r="4" transform="translate(140 72)" fill="#ff8c2b"/><circle cx="4" cy="4" r="4" transform="translate(140 90)" fill="#ff8c2b"/><circle cx="4" cy="4" r="4" transform="translate(140 108)" fill="#ff8c2b"/><circle cx="4" cy="4" r="4" transform="translate(140 126)" fill="#ff8c2b"/><circle cx="4" cy="4" r="4" transform="translate(140 144)" fill="#ff8c2b"/><circle cx="4" cy="4" r="4" transform="translate(140 162)" fill="#ff8c2b"/><circle cx="4" cy="4" r="4" transform="translate(140 180)" fill="#ff8c2b"/><circle cx="4" cy="4" r="4" transform="translate(140 198)" fill="#ff8c2b"/><circle cx="4" cy="4" r="4" transform="translate(140 216)" fill="#ff8c2b"/></g><g transform="translate(313 1972)"><circle cx="4" cy="4" r="4" fill="#ff8c2b"/><circle cx="4" cy="4" r="4" transform="translate(0 18)" fill="#ff8c2b"/><circle cx="4" cy="4" r="4" transform="translate(0 36)" fill="#ff8c2b"/><circle cx="4" cy="4" r="4" transform="translate(0 54)" fill="#ff8c2b"/><circle cx="4" cy="4" r="4" transform="translate(0 72)" fill="#ff8c2b"/><circle cx="4" cy="4" r="4" transform="translate(0 90)" fill="#ff8c2b"/><circle cx="4" cy="4" r="4" transform="translate(0 108)" fill="#ff8c2b"/><circle cx="4" cy="4" r="4" transform="translate(0 126)" fill="#ff8c2b"/><circle cx="4" cy="4" r="4" transform="translate(0 144)" fill="#ff8c2b"/><circle cx="4" cy="4" r="4" transform="translate(0 162)" fill="#ff8c2b"/><circle cx="4" cy="4" r="4" transform="translate(0 180)" fill="#ff8c2b"/><circle cx="4" cy="4" r="4" transform="translate(0 198)" fill="#ff8c2b"/><circle cx="4" cy="4" r="4" transform="translate(0 216)" fill="#ff8c2b"/><circle cx="4" cy="4" r="4" transform="translate(20)" fill="#ff8c2b"/><circle cx="4" cy="4" r="4" transform="translate(20 18)" fill="#ff8c2b"/><circle cx="4" cy="4" r="4" transform="translate(20 36)" fill="#ff8c2b"/><circle cx="4" cy="4" r="4" transform="translate(20 54)" fill="#ff8c2b"/><circle cx="4" cy="4" r="4" transform="translate(20 72)" fill="#ff8c2b"/><circle cx="4" cy="4" r="4" transform="translate(20 90)" fill="#ff8c2b"/><circle cx="4" cy="4" r="4" transform="translate(20 108)" fill="#ff8c2b"/><circle cx="4" cy="4" r="4" transform="translate(20 126)" fill="#ff8c2b"/><circle cx="4" cy="4" r="4" transform="translate(20 144)" fill="#ff8c2b"/><circle cx="4" cy="4" r="4" transform="translate(20 162)" fill="#ff8c2b"/><circle cx="4" cy="4" r="4" transform="translate(20 180)" fill="#ff8c2b"/><circle cx="4" cy="4" r="4" transform="translate(20 198)" fill="#ff8c2b"/><circle cx="4" cy="4" r="4" transform="translate(20 216)" fill="#ff8c2b"/><circle cx="4" cy="4" r="4" transform="translate(40)" fill="#ff8c2b"/><circle cx="4" cy="4" r="4" transform="translate(40 18)" fill="#ff8c2b"/><circle cx="4" cy="4" r="4" transform="translate(40 36)" fill="#ff8c2b"/><circle cx="4" cy="4" r="4" transform="translate(40 54)" fill="#ff8c2b"/><circle cx="4" cy="4" r="4" transform="translate(40 72)" fill="#ff8c2b"/><circle cx="4" cy="4" r="4" transform="translate(40 90)" fill="#ff8c2b"/><circle cx="4" cy="4" r="4" transform="translate(40 108)" fill="#ff8c2b"/><circle cx="4" cy="4" r="4" transform="translate(40 126)" fill="#ff8c2b"/><circle cx="4" cy="4" r="4" transform="translate(40 144)" fill="#ff8c2b"/><circle cx="4" cy="4" r="4" transform="translate(40 162)" fill="#ff8c2b"/><circle cx="4" cy="4" r="4" transform="translate(40 180)" fill="#ff8c2b"/><circle cx="4" cy="4" r="4" transform="translate(40 198)" fill="#ff8c2b"/><circle cx="4" cy="4" r="4" transform="translate(40 216)" fill="#ff8c2b"/><circle cx="4" cy="4" r="4" transform="translate(60)" fill="#ff8c2b"/><circle cx="4" cy="4" r="4" transform="translate(60 18)" fill="#ff8c2b"/><circle cx="4" cy="4" r="4" transform="translate(60 36)" fill="#ff8c2b"/><circle cx="4" cy="4" r="4" transform="translate(60 54)" fill="#ff8c2b"/><circle cx="4" cy="4" r="4" transform="translate(60 72)" fill="#ff8c2b"/><circle cx="4" cy="4" r="4" transform="translate(60 90)" fill="#ff8c2b"/><circle cx="4" cy="4" r="4" transform="translate(60 108)" fill="#ff8c2b"/><circle cx="4" cy="4" r="4" transform="translate(60 126)" fill="#ff8c2b"/><circle cx="4" cy="4" r="4" transform="translate(60 144)" fill="#ff8c2b"/><circle cx="4" cy="4" r="4" transform="translate(60 162)" fill="#ff8c2b"/><circle cx="4" cy="4" r="4" transform="translate(60 180)" fill="#ff8c2b"/><circle cx="4" cy="4" r="4" transform="translate(60 198)" fill="#ff8c2b"/><circle cx="4" cy="4" r="4" transform="translate(60 216)" fill="#ff8c2b"/><circle cx="4" cy="4" r="4" transform="translate(80)" fill="#ff8c2b"/><circle cx="4" cy="4" r="4" transform="translate(80 18)" fill="#ff8c2b"/><circle cx="4" cy="4" r="4" transform="translate(80 36)" fill="#ff8c2b"/><circle cx="4" cy="4" r="4" transform="translate(80 54)" fill="#ff8c2b"/><circle cx="4" cy="4" r="4" transform="translate(80 72)" fill="#ff8c2b"/><circle cx="4" cy="4" r="4" transform="translate(80 90)" fill="#ff8c2b"/><circle cx="4" cy="4" r="4" transform="translate(80 108)" fill="#ff8c2b"/><circle cx="4" cy="4" r="4" transform="translate(80 126)" fill="#ff8c2b"/><circle cx="4" cy="4" r="4" transform="translate(80 144)" fill="#ff8c2b"/><circle cx="4" cy="4" r="4" transform="translate(80 162)" fill="#ff8c2b"/><circle cx="4" cy="4" r="4" transform="translate(80 180)" fill="#ff8c2b"/><circle cx="4" cy="4" r="4" transform="translate(80 198)" fill="#ff8c2b"/><circle cx="4" cy="4" r="4" transform="translate(80 216)" fill="#ff8c2b"/><circle cx="4" cy="4" r="4" transform="translate(100)" fill="#ff8c2b"/><circle cx="4" cy="4" r="4" transform="translate(100 18)" fill="#ff8c2b"/><circle cx="4" cy="4" r="4" transform="translate(100 36)" fill="#ff8c2b"/><circle cx="4" cy="4" r="4" transform="translate(100 54)" fill="#ff8c2b"/><circle cx="4" cy="4" r="4" transform="translate(100 72)" fill="#ff8c2b"/><circle cx="4" cy="4" r="4" transform="translate(100 90)" fill="#ff8c2b"/><circle cx="4" cy="4" r="4" transform="translate(100 108)" fill="#ff8c2b"/><circle cx="4" cy="4" r="4" transform="translate(100 126)" fill="#ff8c2b"/><circle cx="4" cy="4" r="4" transform="translate(100 144)" fill="#ff8c2b"/><circle cx="4" cy="4" r="4" transform="translate(100 162)" fill="#ff8c2b"/><circle cx="4" cy="4" r="4" transform="translate(100 180)" fill="#ff8c2b"/><circle cx="4" cy="4" r="4" transform="translate(100 198)" fill="#ff8c2b"/><circle cx="4" cy="4" r="4" transform="translate(100 216)" fill="#ff8c2b"/><circle cx="4" cy="4" r="4" transform="translate(120)" fill="#ff8c2b"/><circle cx="4" cy="4" r="4" transform="translate(120 18)" fill="#ff8c2b"/><circle cx="4" cy="4" r="4" transform="translate(120 36)" fill="#ff8c2b"/><circle cx="4" cy="4" r="4" transform="translate(120 54)" fill="#ff8c2b"/><circle cx="4" cy="4" r="4" transform="translate(120 72)" fill="#ff8c2b"/><circle cx="4" cy="4" r="4" transform="translate(120 90)" fill="#ff8c2b"/><circle cx="4" cy="4" r="4" transform="translate(120 108)" fill="#ff8c2b"/><circle cx="4" cy="4" r="4" transform="translate(120 126)" fill="#ff8c2b"/><circle cx="4" cy="4" r="4" transform="translate(120 144)" fill="#ff8c2b"/><circle cx="4" cy="4" r="4" transform="translate(120 162)" fill="#ff8c2b"/><circle cx="4" cy="4" r="4" transform="translate(120 180)" fill="#ff8c2b"/><circle cx="4" cy="4" r="4" transform="translate(120 198)" fill="#ff8c2b"/><circle cx="4" cy="4" r="4" transform="translate(120 216)" fill="#ff8c2b"/><circle cx="4" cy="4" r="4" transform="translate(140)" fill="#ff8c2b"/><circle cx="4" cy="4" r="4" transform="translate(140 18)" fill="#ff8c2b"/><circle cx="4" cy="4" r="4" transform="translate(140 36)" fill="#ff8c2b"/><circle cx="4" cy="4" r="4" transform="translate(140 54)" fill="#ff8c2b"/><circle cx="4" cy="4" r="4" transform="translate(140 72)" fill="#ff8c2b"/><circle cx="4" cy="4" r="4" transform="translate(140 90)" fill="#ff8c2b"/><circle cx="4" cy="4" r="4" transform="translate(140 108)" fill="#ff8c2b"/><circle cx="4" cy="4" r="4" transform="translate(140 126)" fill="#ff8c2b"/><circle cx="4" cy="4" r="4" transform="translate(140 144)" fill="#ff8c2b"/><circle cx="4" cy="4" r="4" transform="translate(140 162)" fill="#ff8c2b"/><circle cx="4" cy="4" r="4" transform="translate(140 180)" fill="#ff8c2b"/><circle cx="4" cy="4" r="4" transform="translate(140 198)" fill="#ff8c2b"/><circle cx="4" cy="4" r="4" transform="translate(140 216)" fill="#ff8c2b"/></g></g></svg>