<svg xmlns="http://www.w3.org/2000/svg" xmlns:xlink="http://www.w3.org/1999/xlink" width="56" height="56" viewBox="0 0 56 56"><defs><clipPath id="a"><rect width="52" height="52" fill="none"/></clipPath></defs><circle cx="20" cy="20" r="20" transform="translate(16)" fill="#ff8c2b"/><g transform="translate(0 4)"><rect width="52" height="52" fill="none"/><g clip-path="url(#a)"><g transform="translate(21.375 14.582)"><path d="M8.5,1.07S6.293-.88,2.415.485C-1.16,1.72-.987,6.617,4.43,7.917" transform="translate(0 3.177)" fill="none" stroke="#121212" stroke-linecap="round" stroke-linejoin="round" stroke-miterlimit="10" stroke-width="2.6" stroke-dasharray="0 0"/><path d="M0,6.868s2.21,1.95,6.088.585C9.685,6.2,9.512,1.3,4.073,0" transform="translate(0.01 10.985)" fill="none" stroke="#121212" stroke-linecap="round" stroke-linejoin="round" stroke-miterlimit="10" stroke-width="2.6" stroke-dasharray="0 0"/><path d="M0,3.185V0" transform="translate(4.646)" fill="none" stroke="#121212" stroke-linecap="round" stroke-linejoin="round" stroke-miterlimit="10" stroke-width="2.6" stroke-dasharray="0 0"/><path d="M0,3.185V0" transform="translate(4.646 18.915)" fill="none" stroke="#121212" stroke-linecap="round" stroke-linejoin="round" stroke-miterlimit="10" stroke-width="2.6" stroke-dasharray="0 0"/></g><path d="M20,40A20,20,0,1,1,40,20,20,20,0,0,1,20,40Z" transform="translate(5.633 5.633)" fill="none" stroke="#121212" stroke-linecap="round" stroke-linejoin="round" stroke-miterlimit="10" stroke-width="2.6" stroke-dasharray="0 0"/></g></g></svg>