<svg xmlns="http://www.w3.org/2000/svg" xmlns:xlink="http://www.w3.org/1999/xlink" width="56" height="56" viewBox="0 0 56 56"><defs><clipPath id="a"><rect width="52" height="52" fill="none"/></clipPath></defs><circle cx="20" cy="20" r="20" transform="translate(16)" fill="#ff8c2b"/><g transform="translate(0 4)"><rect width="52" height="52" fill="none"/><g clip-path="url(#a)"><g transform="translate(12.155 7.8)"><path d="M15.34,37.678a2.01,2.01,0,0,1-2.99,0C8.775,33.648,0,22.837,0,13.845a13.845,13.845,0,0,1,27.69,0C27.69,22.837,18.915,33.648,15.34,37.678Z" fill="none" stroke="#121212" stroke-linecap="round" stroke-linejoin="round" stroke-miterlimit="10" stroke-width="2.6" stroke-dasharray="0 0"/><path d="M5.547,11.093a5.547,5.547,0,1,1,5.547-5.547A5.547,5.547,0,0,1,5.547,11.093Z" transform="translate(8.277 8.298)" fill="none" stroke="#121212" stroke-linecap="round" stroke-linejoin="round" stroke-miterlimit="10" stroke-width="2.6" stroke-dasharray="0 0"/></g></g></g></svg>