<svg xmlns="http://www.w3.org/2000/svg" xmlns:xlink="http://www.w3.org/1999/xlink" width="55" height="56" viewBox="0 0 55 56"><defs><clipPath id="a"><rect width="52" height="52" fill="none"/></clipPath></defs><circle cx="20" cy="20" r="20" transform="translate(15)" fill="#ff8c2b"/><g transform="translate(0 4)"><rect width="52" height="52" fill="none"/><g clip-path="url(#a)"><g transform="translate(7.8 7.694)"><path d="M8.545,3.459a.651.651,0,0,0,.563.433l3.25.3a.785.785,0,0,1,.455,1.365L10.365,7.705a.671.671,0,0,0-.217.672l.715,3.185a.785.785,0,0,1-1.17.845L6.9,10.739a.7.7,0,0,0-.715,0l-2.8,1.668a.788.788,0,0,1-1.17-.845l.715-3.185a.671.671,0,0,0-.217-.672L.268,5.56A.78.78,0,0,1,.723,4.2l3.25-.3a.7.7,0,0,0,.585-.412L5.836.49A.773.773,0,0,1,7.266.469Z" transform="translate(10.76 8.131)" fill="none" stroke="#121212" stroke-linecap="round" stroke-linejoin="round" stroke-miterlimit="10" stroke-width="2.167" stroke-dasharray="0 0"/><path d="M14.733,29.467A14.733,14.733,0,1,1,29.467,14.733,14.733,14.733,0,0,1,14.733,29.467Z" transform="translate(2.674 29.669) rotate(-90.394)" fill="none" stroke="#121212" stroke-linecap="round" stroke-linejoin="round" stroke-miterlimit="10" stroke-width="2.167" stroke-dasharray="0 0"/><g transform="translate(0 22.358)"><path d="M15.3,7.063l-3.662,9.208L7,10.963l-7,.65L4.637,0" fill="none" stroke="#121212" stroke-linecap="round" stroke-linejoin="round" stroke-miterlimit="10" stroke-width="2.167" stroke-dasharray="0 0"/><path d="M0,7.063l3.683,9.208L8.3,10.963l7.02.65L10.66,0" transform="translate(19.283)" fill="none" stroke="#121212" stroke-linecap="round" stroke-linejoin="round" stroke-miterlimit="10" stroke-width="2.167" stroke-dasharray="0 0"/></g></g></g></g></svg>